<?xml version="1.0" encoding="UTF-8"?>
<!DOCTYPE svg PUBLIC "-//W3C//DTD SVG 1.1//EN" "http://www.w3.org/Graphics/SVG/1.1/DTD/svg11.dtd">
<svg xmlns="http://www.w3.org/2000/svg" version="1.1" width="512px" height="512px" style="shape-rendering:geometricPrecision; text-rendering:geometricPrecision; image-rendering:optimizeQuality; fill-rule:evenodd; clip-rule:evenodd" xmlns:xlink="http://www.w3.org/1999/xlink">
<g><path style="opacity:0.997" fill="#73af00" d="M 511.5,117.5 C 511.5,209.5 511.5,301.5 511.5,393.5C 507.27,409.56 496.936,419.393 480.5,423C 330.5,423.667 180.5,423.667 30.5,423C 14.0898,419.421 3.75644,409.587 -0.5,393.5C -0.5,301.5 -0.5,209.5 -0.5,117.5C 3.75644,101.413 14.0898,91.5795 30.5,88C 180.5,87.3333 330.5,87.3333 480.5,88C 496.91,91.5795 507.244,101.413 511.5,117.5 Z"/></g>
<g><path style="opacity:1" fill="#fee059" d="M 252.5,133.5 C 256.131,133.16 259.464,133.994 262.5,136C 324.75,174.041 386.917,212.208 449,250.5C 451.446,255.324 450.613,259.491 446.5,263C 385.167,300.333 323.833,337.667 262.5,375C 257.833,378.333 253.167,378.333 248.5,375C 186.25,336.959 124.083,298.792 62,260.5C 59.554,255.676 60.3873,251.509 64.5,248C 127.397,210.059 190.064,171.892 252.5,133.5 Z"/></g>
<g><path style="opacity:1" fill="#43489b" d="M 325.5,247.5 C 325.666,252.179 325.499,256.845 325,261.5C 306.381,245.771 285.214,234.604 261.5,228C 239.735,222.211 217.735,219.044 195.5,218.5C 213.721,191.232 239.055,180.732 271.5,187C 302.383,195.714 320.383,215.881 325.5,247.5 Z"/></g>
<g><path style="opacity:1" fill="#f1f1f2" d="M 195.5,218.5 C 217.735,219.044 239.735,222.211 261.5,228C 285.214,234.604 306.381,245.771 325,261.5C 325.499,256.845 325.666,252.179 325.5,247.5C 327.345,259.622 325.678,271.288 320.5,282.5C 318.78,279.269 316.447,276.436 313.5,274C 288.187,255.331 259.853,243.664 228.5,239C 214.865,237.716 201.199,237.216 187.5,237.5C 188.812,230.549 191.479,224.215 195.5,218.5 Z"/></g>
<g><path style="opacity:1" fill="#dddee9" d="M 282.5,223.5 C 283.66,224.611 284.993,225.611 286.5,226.5C 286.023,227.931 285.357,229.264 284.5,230.5C 283.5,229.167 282.5,229.167 281.5,230.5C 280.643,229.264 279.977,227.931 279.5,226.5C 280.77,225.712 281.77,224.712 282.5,223.5 Z"/></g>
<g><path style="opacity:1" fill="#42489b" d="M 187.5,237.5 C 201.199,237.216 214.865,237.716 228.5,239C 259.853,243.664 288.187,255.331 313.5,274C 316.447,276.436 318.78,279.269 320.5,282.5C 304.585,315.465 278.252,329.631 241.5,325C 211.003,316.837 192.503,297.337 186,266.5C 185.333,258.167 185.333,249.833 186,241.5C 186.21,239.942 186.71,238.609 187.5,237.5 Z"/></g>
<g><path style="opacity:1" fill="#dcdde9" d="M 205.5,252.5 C 208.139,253.706 208.972,255.706 208,258.5C 206.095,257.842 204.595,256.675 203.5,255C 204.756,254.583 205.423,253.75 205.5,252.5 Z"/></g>
<g><path style="opacity:1" fill="#dddee9" d="M 219.5,264.5 C 222.139,265.706 222.972,267.706 222,270.5C 220.095,269.842 218.595,268.675 217.5,267C 218.756,266.583 219.423,265.75 219.5,264.5 Z"/></g>
<g><path style="opacity:1" fill="#dfdfea" d="M 202.5,266.5 C 203.882,267.801 205.548,268.634 207.5,269C 206.027,269.71 205.36,270.876 205.5,272.5C 203.669,273.052 202.003,273.052 200.5,272.5C 201.668,271.094 201.335,269.928 199.5,269C 201.119,268.764 202.119,267.931 202.5,266.5 Z"/></g>
<g><path style="opacity:1" fill="#e0e1ea" d="M 247.5,268.5 C 248.316,270.144 249.65,271.31 251.5,272C 250.773,273.399 250.273,274.899 250,276.5C 248.667,275.167 247.333,275.167 246,276.5C 245.727,274.899 245.227,273.399 244.5,272C 245.448,271.517 246.448,271.351 247.5,271.5C 247.5,270.5 247.5,269.5 247.5,268.5 Z"/></g>
<g><path style="opacity:1" fill="#eaeaef" d="M 256.5,279.5 C 257.496,279.414 258.329,279.748 259,280.5C 259.871,284.328 262.371,286.328 266.5,286.5C 265.653,287.845 264.487,288.845 263,289.5C 264.709,296.512 262.876,297.845 257.5,293.5C 255.929,295.415 253.929,296.415 251.5,296.5C 251.586,294.323 252.253,292.323 253.5,290.5C 246.615,286.644 247.281,284.977 255.5,285.5C 255.517,283.435 255.85,281.435 256.5,279.5 Z"/></g>
<g><path style="opacity:1" fill="#e7e7ee" d="M 215.5,280.5 C 216.743,282.164 218.41,283.331 220.5,284C 218.802,285.403 218.302,287.236 219,289.5C 217.806,287.475 216.306,287.141 214.5,288.5C 213.772,286.807 212.772,285.307 211.5,284C 213.91,283.943 215.244,282.776 215.5,280.5 Z"/></g>
<g><path style="opacity:1" fill="#d9d9e7" d="M 300.5,280.5 C 304.853,281.836 305.52,284.17 302.5,287.5C 301.5,286.167 300.5,286.167 299.5,287.5C 298.643,286.264 297.977,284.931 297.5,283.5C 298.993,282.859 299.993,281.859 300.5,280.5 Z"/></g>
<g><path style="opacity:1" fill="#dadae7" d="M 240.5,293.5 C 241.66,294.611 242.993,295.611 244.5,296.5C 244.023,297.931 243.357,299.264 242.5,300.5C 241.28,299.289 240.113,299.289 239,300.5C 238.727,298.671 237.893,297.171 236.5,296C 238.32,295.8 239.653,294.966 240.5,293.5 Z"/></g>
<g><path style="opacity:1" fill="#dcdde8" d="M 280.5,294.5 C 281.882,295.801 283.548,296.634 285.5,297C 284.107,298.171 283.273,299.671 283,301.5C 281.887,300.289 280.72,300.289 279.5,301.5C 278.756,300.009 278.09,298.509 277.5,297C 279.119,296.764 280.119,295.931 280.5,294.5 Z"/></g>
<g><path style="opacity:1" fill="#d3d4e4" d="M 293.5,294.5 C 294.534,295.687 295.867,296.52 297.5,297C 296.929,298.205 296.262,299.372 295.5,300.5C 294.575,299.359 293.741,299.359 293,300.5C 292.691,299.234 292.191,298.067 291.5,297C 292.756,296.583 293.423,295.75 293.5,294.5 Z"/></g>
</svg>
